<?xml version="1.0" standalone="no"?>
<!DOCTYPE svg PUBLIC "-//W3C//DTD SVG 20010904//EN"
 "http://www.w3.org/TR/2001/REC-SVG-20010904/DTD/svg10.dtd">
<svg version="1.0" xmlns="http://www.w3.org/2000/svg"
 width="512.000000pt" height="512.000000pt" viewBox="0 0 512.000000 512.000000"
 preserveAspectRatio="xMidYMid meet">
<metadata>
Created by potrace 1.14, written by Peter Selinger 2001-2017
</metadata>
<g transform="translate(0.000000,512.000000) scale(0.100000,-0.100000)"
fill="#000000" stroke="none">
<path d="M3390 4356 c-71 -25 -137 -56 -398 -182 -95 -46 -175 -84 -176 -84
-2 0 -70 -32 -152 -71 -82 -39 -178 -85 -214 -101 -36 -17 -112 -53 -170 -80
-58 -28 -193 -92 -302 -143 -108 -52 -213 -104 -235 -118 -86 -54 -158 -158
-183 -265 -13 -58 -9 -174 9 -232 6 -19 63 -127 126 -240 63 -112 111 -207
107 -211 -7 -7 -237 -143 -547 -324 -77 -46 -201 -118 -275 -162 -74 -44 -225
-133 -335 -198 l-200 -119 -75 -1 c-41 0 -85 -4 -97 -8 -52 -19 -74 -110 -37
-160 24 -33 36 -38 109 -43 117 -8 171 -26 338 -118 88 -49 164 -75 257 -90
176 -28 370 6 514 91 113 66 125 72 193 92 78 24 185 31 258 18 27 -4 56 -9
63 -9 13 -1 68 -28 243 -120 101 -52 215 -80 333 -81 164 -2 282 30 433 117
150 85 202 100 343 98 108 -1 187 -25 305 -93 116 -67 199 -97 305 -113 210
-31 383 7 567 124 64 41 181 76 273 83 70 5 77 8 107 41 27 29 31 40 27 71 -6
53 -20 73 -62 90 -27 12 -55 14 -107 10 -132 -11 -222 -43 -399 -140 -100 -55
-170 -73 -281 -73 -138 0 -188 16 -368 117 -61 35 -153 70 -202 78 -16 3 -36
8 -42 12 -11 6 -105 140 -591 851 -237 346 -294 431 -291 434 2 2 265 133 583
292 642 320 656 329 713 450 52 111 39 270 -30 368 -97 140 -279 199 -437 142z
m209 -212 c94 -55 104 -205 18 -266 -17 -12 -290 -152 -606 -311 -317 -158
-589 -300 -604 -315 -16 -15 -36 -40 -44 -56 -19 -37 -25 -127 -10 -168 10
-26 334 -503 719 -1057 51 -74 94 -138 96 -142 2 -4 -23 -15 -55 -24 -92 -26
-132 -43 -238 -103 -117 -67 -199 -91 -314 -91 -127 -1 -207 24 -361 115 -53
32 -152 72 -195 80 -104 19 -140 22 -225 19 -52 -2 -104 -6 -115 -8 -107 -25
-186 -56 -260 -102 -133 -83 -193 -100 -345 -100 -93 0 -127 5 -176 22 -62 22
-174 82 -174 93 0 3 275 168 612 366 336 197 626 374 644 392 40 41 63 105 59
162 -4 47 -25 91 -142 295 -112 196 -116 204 -119 260 -3 55 21 123 59 164 16
18 373 201 391 201 2 0 68 31 147 69 79 37 173 82 209 99 36 16 119 56 185 87
66 32 156 74 200 95 44 21 130 61 190 90 61 29 137 65 170 80 33 15 84 39 113
53 62 29 123 29 171 1z"/>
<path d="M3910 3455 c-164 -31 -277 -87 -391 -192 -167 -155 -244 -338 -243
-573 3 -276 160 -532 409 -662 382 -198 862 -34 1041 357 104 228 90 500 -37
711 -68 112 -199 234 -316 293 -125 63 -326 92 -463 66z m264 -221 c146 -38
284 -149 349 -284 106 -217 66 -464 -102 -630 -175 -174 -429 -212 -645 -97
-78 41 -182 145 -223 223 -96 182 -86 393 28 564 127 190 370 282 593 224z"/>
<path d="M250 1143 c-38 -35 -45 -89 -19 -133 23 -38 44 -46 137 -54 102 -9
178 -36 278 -96 47 -28 127 -65 178 -82 77 -26 109 -31 211 -34 185 -6 305 26
461 120 118 72 179 89 314 90 138 0 182 -12 323 -92 103 -58 203 -98 272 -110
22 -4 96 -7 165 -7 179 1 209 10 475 148 90 46 174 65 278 62 122 -3 208 -33
362 -124 45 -27 140 -60 214 -76 62 -13 256 -14 306 -2 112 27 185 57 285 117
83 50 167 77 261 86 40 3 84 10 96 15 33 12 56 54 56 101 0 35 -6 47 -33 71
l-33 30 -101 -6 c-100 -5 -189 -28 -266 -67 -19 -10 -83 -42 -141 -72 -58 -30
-112 -55 -120 -55 -8 -1 -34 -5 -59 -10 -47 -10 -140 -9 -202 1 -62 10 -130
37 -212 83 -106 61 -148 77 -255 103 -77 19 -111 22 -209 18 -142 -6 -258 -41
-393 -119 -113 -65 -192 -90 -298 -93 -129 -5 -218 19 -331 87 -148 90 -275
127 -436 127 -169 0 -268 -29 -443 -130 -106 -61 -202 -87 -309 -85 -120 4
-191 21 -262 64 -183 109 -307 151 -450 151 -62 0 -73 -3 -100 -27z"/>
</g>
</svg>
